<svg width="245" height="245" viewBox="0 0 245 245" fill="none" xmlns="http://www.w3.org/2000/svg">
    <g clip-path="url(#clip0_6_49)">
        <path d="M122.02 244.519C189.41 244.519 244.041 189.782 244.041 122.26C244.041 54.7375 189.41 0 122.02 0C54.6303 0 0 54.7375 0 122.26C0 189.782 54.6303 244.519 122.02 244.519Z" fill="#FF9F58"/>
        <path d="M140.154 243.72C149.059 240.6 155.466 232.101 155.466 222.127C155.466 174.946 155.466 68.7185 155.466 22.8711C155.466 10.2598 145.225 -0.000488281 132.639 -0.000488281H46.9413C34.354 0.000468748 24.1138 10.2608 24.1138 22.872C24.1138 30.0794 24.1138 187.35 24.1138 195.053V195.056C51.0015 231.716 95.4479 250.212 140.154 243.72Z" fill="#666666"/>
        <path d="M24.1138 22.8721V195.053C27.9405 200.271 32.1715 205.173 36.759 209.714V22.8721C36.759 10.2608 46.9992 0.000488281 59.5861 0.000488281H46.9413C34.354 0.000488281 24.1138 10.2608 24.1138 22.8721Z" fill="#5A5B5B"/>
        <path d="M132.639 12.6725H120.88C119.371 12.6725 118.149 13.898 118.149 15.4091V18.9095C118.149 22.1567 115.497 24.8139 112.256 24.8139H67.3237C64.0827 24.8139 61.4308 22.1572 61.4308 18.9095V16.4891C61.4308 14.3813 59.7254 12.6725 57.6214 12.6725H46.9409C41.3188 12.6725 36.761 17.239 36.761 22.8721V209.716C45.7245 218.589 56.0504 226.082 67.3988 231.849H132.639C138.261 231.849 142.818 227.283 142.818 221.649V22.8721C142.818 17.239 138.261 12.6725 132.639 12.6725Z" fill="#F9F6ED"/>
        <path d="M46.9414 12.6725C41.3193 12.6725 36.7615 17.239 36.7615 22.8721V209.716C40.5719 213.488 44.6287 217.01 48.9057 220.257V22.8721C48.9057 17.5448 52.9836 13.1774 58.1817 12.718C57.5893 12.6304 58.2186 12.6917 46.9414 12.6725Z" fill="#EAE4D6"/>
        <path d="M104.612 16.3628H85.3824C83.3482 16.3628 81.6992 14.711 81.6992 12.6725C81.6992 10.634 83.3482 8.98221 85.3824 8.98221H104.612C106.646 8.98221 108.295 10.634 108.295 12.6725C108.295 14.711 106.646 16.3628 104.612 16.3628Z" fill="#7F7E7D"/>
        <path d="M71.7553 15.7412C69.1186 14.0047 69.7575 9.7598 73.076 9.05447C75.3336 8.58792 77.4812 10.3398 77.4812 12.6706C77.4812 14.3846 76.3007 15.9207 74.5148 16.292C74.2794 16.3365 72.5046 16.2489 71.7553 15.7412Z" fill="#7F7E7D"/>
        <path d="M60.457 221.164H50.6049C49.7005 221.164 48.9607 220.424 48.9607 219.52V209.642C48.9607 208.738 49.7005 207.998 50.6049 207.998H60.457C61.3614 207.998 62.1012 208.738 62.1012 209.642V219.52C62.1012 220.424 61.3614 221.164 60.457 221.164Z" fill="#0EB0FF"/>
        <path d="M83.6587 221.164H73.8065C72.9021 221.164 72.1624 220.424 72.1624 219.52V209.642C72.1624 208.738 72.9021 207.998 73.8065 207.998H83.6587C84.5631 207.998 85.3029 208.738 85.3029 209.642V219.52C85.3029 220.424 84.5626 221.164 83.6587 221.164Z" fill="#FFC30A"/>
        <path d="M106.86 221.164H97.0079C96.1036 221.164 95.3638 220.424 95.3638 219.52V209.642C95.3638 208.738 96.1036 207.998 97.0079 207.998H106.86C107.764 207.998 108.504 208.738 108.504 209.642V219.52C108.504 220.424 107.764 221.164 106.86 221.164Z" fill="#E0D5BD"/>
        <path d="M130.061 221.164H120.209C119.305 221.164 118.565 220.424 118.565 219.52V209.642C118.565 208.738 119.305 207.998 120.209 207.998H130.061C130.966 207.998 131.705 208.738 131.705 209.642V219.52C131.705 220.424 130.966 221.164 130.061 221.164Z" fill="#FE3F4E"/>
        <path d="M69.6573 65.1503C50.4297 76.2513 43.818 100.925 54.9196 120.153C66.0211 139.38 90.6943 145.992 109.922 134.89C129.15 123.789 135.761 99.1157 124.66 79.888C113.558 60.6604 88.885 54.0492 69.6573 65.1503Z" fill="#FFC30A"/>
        <path d="M61.1349 116.564C50.6387 98.3841 55.9842 75.3431 72.849 63.5018C51.266 73.531 43.1853 99.8297 54.919 120.153C66.6307 140.438 93.4304 146.652 112.945 132.951C94.2582 141.635 71.6311 134.744 61.1349 116.564Z" fill="#FFA01A"/>
        <path d="M89.7888 133.107C108.063 133.107 122.878 118.293 122.878 100.019C122.878 81.7442 108.063 66.9299 89.7888 66.9299C71.5143 66.9299 56.7 81.7442 56.7 100.019C56.7 118.293 71.5143 133.107 89.7888 133.107Z" fill="#FFA01A"/>
        <path d="M83.8151 122.573C67.9896 113.436 62.5676 93.1998 71.7044 77.3749C73.6242 74.0497 76.0383 71.1906 78.794 68.8229C71.6039 71.3532 65.2449 76.3585 61.1349 83.4774C51.9982 99.3028 57.4202 119.538 73.2457 128.675C85.7464 135.892 100.994 134.019 111.354 125.116C102.56 128.211 92.5217 127.599 83.8151 122.573Z" fill="#FF8D00"/>
        <path d="M103.839 107.158C103.314 102.401 99.4727 98.776 93.3788 97.1126V88.341C95.9159 89.0612 97.6429 90.2871 97.6649 90.3034C99.2555 91.4853 101.503 91.1542 102.686 89.5641C103.869 87.9735 103.538 85.7254 101.947 84.5425C101.723 84.376 98.2951 81.8801 93.3788 80.9695V79.087C93.3788 77.1045 91.7725 75.4981 89.79 75.4981C87.8075 75.4981 86.2011 77.1045 86.2011 79.087V81.0178C72.9448 83.7927 71.3753 98.8918 86.2011 102.926V111.696C83.7009 110.983 81.9863 109.779 81.9122 109.726C80.3235 108.558 78.0855 108.891 76.9055 110.476C75.7231 112.067 76.0542 114.315 77.6448 115.498C77.8687 115.664 81.2911 118.158 86.2011 119.069V120.953C86.2011 122.935 87.8075 124.542 89.79 124.542C91.7725 124.542 93.3788 122.935 93.3788 120.953V119.022C94.2957 118.831 95.2292 118.565 96.1757 118.199C101.349 116.198 104.357 111.864 103.839 107.158ZM82.8754 92.1074C82.7252 90.7532 83.9827 89.3181 86.0054 88.5358C86.0705 88.5104 86.136 88.4898 86.2006 88.4664V95.3488C84.0779 94.4253 82.996 93.1931 82.8754 92.1074ZM93.5855 111.504C93.5162 111.531 93.4477 111.553 93.3783 111.578V104.691C95.502 105.619 96.5839 106.856 96.7035 107.944C96.8528 109.295 95.5996 110.725 93.5855 111.504Z" fill="white"/>
        <path d="M67.4905 174.81H61.0406C59.0027 174.81 57.3503 173.158 57.3503 171.119C57.3503 169.081 59.0027 167.429 61.0406 167.429H67.4905C69.5285 167.429 71.1808 169.081 71.1808 171.119C71.1808 173.158 69.5285 174.81 67.4905 174.81Z" fill="#E0D5BD"/>
        <path d="M123.185 171.119C123.185 169.081 121.533 167.429 119.495 167.429C106.841 167.429 94.1729 167.429 81.5253 167.429C79.4873 167.429 77.835 169.081 77.835 171.119C77.835 173.158 79.4873 174.81 81.5253 174.81C94.2016 174.81 106.846 174.81 119.495 174.81C121.533 174.81 123.185 173.158 123.185 171.119Z" fill="#E0D5BD"/>
        <path d="M67.4905 159.211H61.0406C59.0027 159.211 57.3503 157.559 57.3503 155.521C57.3503 153.482 59.0027 151.83 61.0406 151.83H67.4905C69.5285 151.83 71.1808 153.482 71.1808 155.521C71.1808 157.559 69.5285 159.211 67.4905 159.211Z" fill="#E0D5BD"/>
        <path d="M123.185 155.521C123.185 153.482 121.533 151.83 119.495 151.83C107.504 151.83 93.379 151.83 81.5253 151.83C79.4873 151.83 77.835 153.482 77.835 155.521C77.835 157.559 79.4873 159.211 81.5253 159.211C93.4202 159.211 107.52 159.211 119.495 159.211C121.533 159.211 123.185 157.559 123.185 155.521Z" fill="#E0D5BD"/>
        <path d="M67.4905 190.408H61.0406C59.0027 190.408 57.3503 188.756 57.3503 186.718C57.3503 184.68 59.0027 183.028 61.0406 183.028H67.4905C69.5285 183.028 71.1808 184.679 71.1808 186.718C71.1808 188.756 69.5285 190.408 67.4905 190.408Z" fill="#E0D5BD"/>
        <path d="M123.185 186.718C123.185 184.679 121.533 183.028 119.495 183.028C80.9861 183.028 81.3229 183.037 81.3708 183.035C80.3975 183.076 79.5242 183.497 78.9131 184.11C76.9852 186.033 77.8063 189.226 80.1554 190.142C81.0387 190.496 80.086 190.408 97.3738 190.408H119.495C121.533 190.408 123.185 188.756 123.185 186.718Z" fill="#E0D5BD"/>
        <path d="M142.966 170.936V155.997C142.966 141.909 154.428 130.446 168.517 130.446C182.605 130.446 194.067 141.908 194.067 155.997V170.936H206.987V155.997C206.987 134.785 189.73 117.527 168.517 117.527C147.305 117.527 130.047 134.785 130.047 155.997V170.936H142.966Z" fill="#EAE4D6"/>
        <path d="M174.981 118.082C151.302 114.056 130.046 132.406 130.046 155.997V170.936H142.966C142.985 155.201 142.927 155.984 143.015 154.488C143.726 136.157 157.32 121.084 174.981 118.082Z" fill="#E0D5BD"/>
        <path d="M218.247 198.531V171.951C218.247 168.937 215.781 166.471 212.767 166.471C208.295 166.471 127.721 166.471 124.044 166.471C121.031 166.471 118.564 168.937 118.564 171.951V239.518C118.564 242.428 120.865 244.821 123.736 244.982C162.051 244.6 196.136 226.533 218.247 198.531Z" fill="#B38BFF"/>
        <path d="M131.213 239.518V171.951C131.213 168.937 133.678 166.471 136.692 166.471C132.397 166.471 127.751 166.471 124.045 166.471C121.031 166.471 118.565 168.937 118.565 171.951V239.518C118.565 242.428 120.866 244.821 123.737 244.982C127.29 244.947 130.806 244.758 134.28 244.424C132.468 243.53 131.213 241.667 131.213 239.518Z" fill="#9A63FF"/>
        <path d="M179.352 195.86C179.352 189.404 173.763 184.253 167.159 184.983C157.689 186.029 153.989 198.048 161.375 204.246C161.739 204.552 161.946 205.003 161.946 205.478V207.951C161.946 211.247 164.346 214.141 167.618 214.534C171.519 215.003 174.866 211.934 174.866 208.122C175 206.225 174.487 205.068 175.553 204.149C177.879 202.141 179.352 199.173 179.352 195.86Z" fill="#CCB1FF"/>
        <path d="M166.05 185.171C157.209 187.105 154.413 198.404 161.375 204.246C162.277 205.003 161.827 205.996 161.946 207.951C161.946 211.247 164.346 214.141 167.618 214.534C171.519 215.003 174.866 211.934 174.866 208.122V205.634C174.866 205.062 175.12 204.522 175.553 204.148C175.719 204.005 175.879 203.855 176.036 203.703C165.291 206.102 158.198 192.783 166.05 185.171Z" fill="#9A63FF"/>
        <path d="M112.465 44.0569C112.465 42.0189 110.813 40.3665 108.775 40.3665H101.822H88.2689H83.9733H70.8041C68.7661 40.3665 67.1143 42.0184 67.1143 44.0569C67.1143 46.0953 68.7666 47.7472 70.8041 47.7472H83.9733H88.2689H101.822H108.775C110.813 47.7472 112.465 46.0948 112.465 44.0569Z" fill="#0EB0FF"/>
    </g>
    <defs>
        <clipPath id="clip0_6_49">
            <rect width="245" height="245" fill="white"/>
        </clipPath>
    </defs>
</svg>
