<svg width="24" height="19" viewBox="0 0 24 19" fill="none" xmlns="http://www.w3.org/2000/svg">
<path d="M0 1.5C0 0.671573 0.671573 0 1.5 0H22.5C23.3284 0 24 0.671573 24 1.5C24 2.32843 23.3284 3 22.5 3H1.5C0.671573 3 0 2.32843 0 1.5Z" fill="white"/>
<path d="M0 9.5C0 8.67157 0.671573 8 1.5 8H22.5C23.3284 8 24 8.67157 24 9.5C24 10.3284 23.3284 11 22.5 11H1.5C0.671573 11 0 10.3284 0 9.5Z" fill="white"/>
<path d="M10 17.5C10 16.6716 10.6716 16 11.5 16H22.5C23.3284 16 24 16.6716 24 17.5C24 18.3284 23.3284 19 22.5 19H11.5C10.6716 19 10 18.3284 10 17.5Z" fill="white"/>
</svg>
